<svg xmlns="http://www.w3.org/2000/svg" width="51.598" height="24.665" viewBox="0 0 51.598 24.665">
  <g id="Group_215" data-name="Group 215" transform="translate(-72 -64.335)">
    <path id="Path_569" data-name="Path 569" d="M47.531,11.25H10.817c-4.106,0-7.442,2.3-7.442,5.139V30.777c0,2.835,3.337,5.139,7.442,5.139H47.531c4.106,0,7.442-2.3,7.442-5.139V16.389C54.973,13.554,51.637,11.25,47.531,11.25Z" transform="translate(68.625 53.085)" fill="#fff"/>
    <path id="Path_570" data-name="Path 570" d="M44.724,11.25H10.344c-3.844,0-6.969,1.975-6.969,4.4V27.987c0,2.43,3.124,4.4,6.969,4.4h34.38c3.844,0,6.969-1.975,6.969-4.4V15.655C51.692,13.225,48.568,11.25,44.724,11.25Z" transform="translate(70.195 54.847)" fill="#e9e9e9"/>
    <path id="Path_571" data-name="Path 571" d="M41.9,11.25H9.868c-3.582,0-6.493,1.683-6.493,3.754V25.515c0,2.071,2.911,3.754,6.493,3.754H41.9c3.582,0,6.493-1.683,6.493-3.754V15C48.4,12.933,45.484,11.25,41.9,11.25Z" transform="translate(72.028 56.358)" fill="#fff"/>
    <text id="VR" transform="translate(85 65)" fill="#aeaeae" font-size="20" font-family="Gilroy-ExtraBold, Gilroy" font-weight="800"><tspan x="0" y="19">VR</tspan></text>
  </g>
</svg>
